<svg enable-background="new 0 0 520 520" height="512" viewBox="0 0 520 520" width="512" xmlns="http://www.w3.org/2000/svg"><g><path d="m395 363.725h-246.734c-4.558 0-8.266-3.708-8.266-8.266v-214.184c0-8.284-6.716-15-15-15h-86.734c-21.1 0-38.266 17.166-38.266 38.266v294.693c0 21.1 17.166 38.266 38.266 38.266h333.469c21.1 0 38.266-17.166 38.266-38.266v-80.51c-.001-8.284-6.717-14.999-15.001-14.999z" fill="#ffb300"/><path d="m481.734 100.063h-158.331l-43.111-70.397c-2.727-4.452-7.571-7.166-12.792-7.166h-119.235c-21.099 0-38.265 17.166-38.265 38.266v294.693c0 21.1 17.166 38.266 38.265 38.266h333.469c21.1 0 38.266-17.166 38.266-38.266v-217.13c0-21.1-17.166-38.266-38.266-38.266z" fill="#fdd835"/><path d="m395 363.725h-135v133.775h111.734c21.1 0 38.266-17.166 38.266-38.266v-80.51c0-8.284-6.716-14.999-15-14.999z" fill="#ff8f00"/><path d="m481.734 100.063h-158.331l-43.111-70.397c-2.727-4.452-7.571-7.166-12.792-7.166h-7.5v371.225h221.734c21.1 0 38.266-17.166 38.266-38.266v-217.13c0-21.1-17.166-38.266-38.266-38.266z" fill="#fbc02d"/></g></svg>
